<svg width="23" height="21" viewBox="0 0 23 21" fill="none"
    xmlns="http://www.w3.org/2000/svg">
    <g filter="url(#filter0_d_3_1977)">
        <path d="M11.8331 10.7899C11.8331 11.1765 11.5197 11.4899 11.1331 11.4899C10.7465 11.4899 10.4331 11.1765 10.4331 10.7899C10.4331 10.4033 10.7465 10.0899 11.1331 10.0899C11.5197 10.0899 11.8331 10.4033 11.8331 10.7899Z" fill="white" stroke="white" stroke-width="1.16667" stroke-linecap="round" stroke-linejoin="round"/>
        <path d="M6.0001 10.7899C6.0001 11.1765 5.6867 11.4899 5.3001 11.4899C4.9135 11.4899 4.6001 11.1765 4.6001 10.7899C4.6001 10.4033 4.9135 10.0899 5.3001 10.0899C5.6867 10.0899 6.0001 10.4033 6.0001 10.7899Z" fill="white" stroke="white" stroke-width="1.16667" stroke-linecap="round" stroke-linejoin="round"/>
        <path d="M17.6666 10.7899C17.6666 11.1765 17.3532 11.4899 16.9666 11.4899C16.58 11.4899 16.2666 11.1765 16.2666 10.7899C16.2666 10.4033 16.58 10.0899 16.9666 10.0899C17.3532 10.0899 17.6666 10.4033 17.6666 10.7899Z" fill="white" stroke="white" stroke-width="1.16667" stroke-linecap="round" stroke-linejoin="round"/>
    </g>
    <defs>
        <filter id="filter0_d_3_1977" x="-3" y="0.923096" width="28" height="28" filterUnits="userSpaceOnUse" color-interpolation-filters="sRGB">
            <feFlood flood-opacity="0" result="BackgroundImageFix"/>
            <feColorMatrix in="SourceAlpha" type="matrix" values="0 0 0 0 0 0 0 0 0 0 0 0 0 0 0 0 0 0 127 0" result="hardAlpha"/>
            <feOffset dy="4"/>
            <feGaussianBlur stdDeviation="2"/>
            <feComposite in2="hardAlpha" operator="out"/>
            <feColorMatrix type="matrix" values="0 0 0 0 0 0 0 0 0 0 0 0 0 0 0 0 0 0 0.25 0"/>
            <feBlend mode="normal" in2="BackgroundImageFix" result="effect1_dropShadow_3_1977"/>
            <feBlend mode="normal" in="SourceGraphic" in2="effect1_dropShadow_3_1977" result="shape"/>
        </filter>
    </defs>
</svg>
