<svg width="90" height="48" viewBox="0 0 90 48" fill="none" xmlns="http://www.w3.org/2000/svg">
<g filter="url(#filter0_d_1_347)">
<g clip-path="url(#clip0_1_347)">
<path d="M77.365 19.71C77.365 22.614 75.124 25.02 72.095 25.02C69.065 25.02 66.867 22.614 66.867 19.71C66.867 16.805 69.066 14.398 72.095 14.398C75.124 14.398 77.365 16.806 77.365 19.71Z" fill="black"/>
<path d="M52.764 19.544C52.764 22.49 50.441 24.689 47.494 24.689C44.59 24.689 42.267 22.489 42.267 19.544C42.267 16.597 44.59 14.44 47.495 14.44C50.441 14.44 52.764 16.598 52.764 19.544Z" fill="black"/>
<path d="M24.074 25.02C27.103 25.02 29.344 22.614 29.344 19.71C29.344 16.805 27.103 14.398 24.074 14.398C21.044 14.398 18.846 16.805 18.846 19.709C18.846 22.614 21.045 25.02 24.074 25.02Z" fill="black"/>
<path d="M72.095 30.54C65.788 30.54 60.975 25.643 60.975 19.668C60.975 13.734 65.83 8.838 72.095 8.838C78.444 8.838 83.257 13.776 83.257 19.668C83.257 25.643 78.402 30.539 72.095 30.539V30.54ZM72.095 25.02C75.125 25.02 77.365 22.614 77.365 19.71C77.365 16.805 75.125 14.398 72.095 14.398C69.066 14.398 66.867 16.805 66.867 19.709C66.867 22.614 69.066 25.02 72.095 25.02ZM47.08 40C42.267 40 38.574 37.884 36.707 34.066L41.603 31.411C42.516 33.195 44.217 34.606 46.997 34.606C50.483 34.606 52.847 32.158 52.847 28.133V27.759C51.727 29.17 49.736 30.249 46.831 30.249C41.063 30.249 36.458 25.768 36.458 19.668C36.458 13.734 41.271 8.88 47.578 8.88C54.009 8.88 58.74 13.485 58.74 19.668V27.967C58.74 35.27 53.76 40 47.08 40ZM47.495 24.689C50.441 24.689 52.765 22.489 52.765 19.544C52.765 16.597 50.441 14.44 47.495 14.44C44.59 14.44 42.267 16.598 42.267 19.544C42.267 22.49 44.59 24.689 47.495 24.689ZM24.074 30.54C17.767 30.54 12.954 25.643 12.954 19.668C12.954 13.734 17.808 8.838 24.074 8.838C30.422 8.838 35.236 13.776 35.236 19.668C35.236 25.643 30.381 30.539 24.074 30.539V30.54ZM24.074 25.02C27.103 25.02 29.344 22.614 29.344 19.71C29.344 16.805 27.103 14.398 24.074 14.398C21.044 14.398 18.846 16.805 18.846 19.709C18.846 22.614 21.045 25.02 24.074 25.02ZM4 0H9.892V30H4V0ZM86 6.5C86 7.16304 85.7366 7.79893 85.2678 8.26777C84.7989 8.73661 84.163 9 83.5 9C82.837 9 82.2011 8.73661 81.7322 8.26777C81.2634 7.79893 81 7.16304 81 6.5C81 5.83696 81.2634 5.20107 81.7322 4.73223C82.2011 4.26339 82.837 4 83.5 4C84.163 4 84.7989 4.26339 85.2678 4.73223C85.7366 5.20107 86 5.83696 86 6.5Z" fill="#FFC268"/>
</g>
</g>
<defs>
<filter id="filter0_d_1_347" x="0" y="0" width="90" height="48" filterUnits="userSpaceOnUse" color-interpolation-filters="sRGB">
<feFlood flood-opacity="0" result="BackgroundImageFix"/>
<feColorMatrix in="SourceAlpha" type="matrix" values="0 0 0 0 0 0 0 0 0 0 0 0 0 0 0 0 0 0 127 0" result="hardAlpha"/>
<feOffset dy="4"/>
<feGaussianBlur stdDeviation="2"/>
<feComposite in2="hardAlpha" operator="out"/>
<feColorMatrix type="matrix" values="0 0 0 0 0 0 0 0 0 0 0 0 0 0 0 0 0 0 0.25 0"/>
<feBlend mode="normal" in2="BackgroundImageFix" result="effect1_dropShadow_1_347"/>
<feBlend mode="normal" in="SourceGraphic" in2="effect1_dropShadow_1_347" result="shape"/>
</filter>
<clipPath id="clip0_1_347">
<rect width="82" height="40" fill="white" transform="translate(4)"/>
</clipPath>
</defs>
</svg>
